<?xml version="1.0" encoding="utf-8"?>
<!-- Svg Vector Icons : http://www.onlinewebfonts.com/icon -->
<!DOCTYPE svg PUBLIC "-//W3C//DTD SVG 1.1//EN" "http://www.w3.org/Graphics/SVG/1.1/DTD/svg11.dtd">
<svg version="1.1" xmlns="http://www.w3.org/2000/svg" xmlns:xlink="http://www.w3.org/1999/xlink" x="0px" y="0px" viewBox="0 0 1000 1000" enable-background="new 0 0 1000 1000" xml:space="preserve">
<metadata> Svg Vector Icons : http://www.onlinewebfonts.com/icon </metadata>
<g><path d="M559.3,456.3c-187.3,0-355.8,112.4-430.7,268.4C209.7,887,372,993.1,559.3,993.1c187.3,0,355.8-112.4,430.7-268.4C908.9,568.7,746.6,456.3,559.3,456.3z M790.3,574.9c56.2,37.5,106.1,87.4,137.3,149.8c-37.5,56.2-81.1,112.4-137.3,149.8c-68.7,49.9-149.8,74.9-237.2,74.9c-81.1,0-162.3-25-237.2-74.9c-56.2-37.5-106.1-87.4-137.3-149.8c37.5-56.2,81.1-112.4,137.3-149.8c6.2,0,6.2-6.2,12.5-6.2c-6.2,25-12.5,56.2-12.5,87.4c0,137.3,106.1,249.7,237.2,249.7c131.1,0,237.2-112.4,237.2-249.7c0-31.2-6.2-56.2-12.5-87.4C784,574.9,790.3,574.9,790.3,574.9L790.3,574.9L790.3,574.9z M596.8,668.5c0,56.2-43.7,99.9-99.9,99.9c-56.2,0-99.9-43.7-99.9-99.9s43.7-99.9,99.9-99.9C546.8,568.7,596.8,612.4,596.8,668.5z"/><path d="M559.3,400.1c-18.7,0-37.5,0-56.2,6.2h112.4C596.8,406.4,578,400.1,559.3,400.1z"/><path d="M84.9,936.9c-6.2,0-12.5-6.2-12.5-18.7V793.4c-12.5-18.7-25-43.7-37.5-62.4c12.5-25,25-43.7,37.5-62.4v-593c0-6.2,6.2-12.5,12.5-12.5h486.9v218.5c0,18.7,12.5,31.2,31.2,31.2h218.5v156.1c18.7,12.5,43.7,25,62.4,37.5V312.7c0-12.5-6.2-37.5-43.7-87.4c-18.7-31.2-49.9-68.7-81.1-99.9c-31.2-31.2-68.7-62.4-99.9-87.4C609.2,6.9,584.3,0.6,571.8,0.6H84.9C47.5,0.6,10,38.1,10,75.5v842.7c0,43.7,37.5,81.1,74.9,81.1h218.5c-37.5-18.7-68.7-37.5-99.9-62.4H84.9z M634.2,100.5c25,18.7,49.9,43.7,81.1,68.7l0,0c31.2,31.2,56.2,56.2,68.7,81.1H634.2V100.5z"/><path d="M228.5,406.4c-18.7,0-31.2,12.5-31.2,31.2s12.5,31.2,31.2,31.2h62.4c62.4-31.2,137.3-56.2,212.2-62.4H228.5z"/><path d="M665.4,406.4h-56.2c25,0,49.9,6.2,74.9,12.5C684.1,412.6,677.9,406.4,665.4,406.4z"/><path d="M216,343.9h224.7c6.2,0,12.5-12.5,12.5-31.2c0-18.7-6.2-31.2-18.7-31.2H216c-12.5,0-18.7,12.5-18.7,31.2C197.3,331.5,203.5,343.9,216,343.9z"/><path d="M216,219.1h224.7c6.2,0,12.5-18.7,12.5-31.2c0-18.7-6.2-31.2-18.7-31.2H216c-12.5,0-18.7,12.5-18.7,31.2C197.3,200.4,203.5,219.1,216,219.1z"/></g>
</svg>